<svg id="bicycle" xmlns="http://www.w3.org/2000/svg" width="290.409" height="198.402" viewBox="0 0 290.409 198.402">
  <g id="Group_114" data-name="Group 114" transform="translate(0 0)">
    <g id="Group_113" data-name="Group 113">
      <path id="Path_103" data-name="Path 103" d="M282.832,148.75a58.778,58.778,0,0,0-71.312-26.369L180.974,56.2h28.608a7.227,7.227,0,1,1,0,14.454h-2.409a4.818,4.818,0,1,0,0,9.636h2.409a16.863,16.863,0,1,0,0-33.725H173.448a4.818,4.818,0,0,0-4.375,6.837l12.411,26.889h-75.81L99.05,65.838h4.139a12.44,12.44,0,0,0,1.363-24.807l-26.47-2.949A13.919,13.919,0,1,0,76.56,65.838H88.451l8.128,17.735L78.1,122.6a57.781,57.781,0,1,0,37.286,58.87h10.566a19.223,19.223,0,1,0,30.887-19.527l31.567-66.646,14.357,31.114a58.778,58.778,0,1,0,80.067,22.341ZM76.56,56.2a4.283,4.283,0,0,1-.019-8.566,3.2,3.2,0,0,1,.482.024l26.47,2.944a2.809,2.809,0,0,1-.3,5.6Zm6.1,79.25a48.179,48.179,0,0,1,23.087,36.38H65.43ZM57.818,224.828a48.179,48.179,0,1,1,16.145-93.516L53.482,174.587a4.818,4.818,0,0,0,4.336,6.88h47.934A48.237,48.237,0,0,1,57.818,224.828Zm68.135-53H115.387a57.816,57.816,0,0,0-28.58-45.124l15.013-31.7,30.608,66.776A19.2,19.2,0,0,0,125.953,171.831Zm18.588,14.454a9.636,9.636,0,1,1,9.636-9.636A9.635,9.635,0,0,1,144.541,186.285Zm3.623-28.536a19.065,19.065,0,0,0-3.623-.371,19.56,19.56,0,0,0-3.373.342L110.092,89.927h70.2Zm83.5,67.445a48.362,48.362,0,0,1-24.836-89.978l20.062,43.462a4.818,4.818,0,0,0,8.829-3.859c-.025-.058-.052-.116-.08-.173L215.566,131.16a47.867,47.867,0,0,1,15.7-2.688,48.362,48.362,0,1,1,.4,96.722Z" transform="translate(-0.007 -37.999)"/>
    </g>
  </g>
  <g id="Group_124" data-name="Group 124" transform="translate(43.322 166.152)">
    <g id="Group_123" data-name="Group 123">
      <path id="Path_108" data-name="Path 108" d="M86.431,315.3a28.905,28.905,0,0,1-8.263-1.2,4.818,4.818,0,0,0-2.813,9.216l.067.02a38.511,38.511,0,0,0,11.009,1.594,4.818,4.818,0,1,0,0-9.635Z" transform="translate(-71.942 -313.889)" fill="#e44132"/>
    </g>
  </g>
  <g id="Group_126" data-name="Group 126" transform="translate(19.266 124.193)">
    <g id="Group_125" data-name="Group 125">
      <path id="Path_109" data-name="Path 109" d="M50.307,279.325a28.954,28.954,0,0,1-7.473-28.912,4.82,4.82,0,1,0-9.241-2.746,38.615,38.615,0,0,0,9.973,38.543,4.818,4.818,0,0,0,6.74-6.885Z" transform="translate(-31.998 -244.218)" fill="#e44132"/>
    </g>
  </g>
  <g id="Group_128" data-name="Group 128" transform="translate(231.258 100.463)">
    <g id="Group_127" data-name="Group 127" transform="translate(0 0)">
      <path id="Path_110" data-name="Path 110" d="M400.526,208.188a38.169,38.169,0,0,0-11.023-3.324,4.82,4.82,0,1,0-1.359,9.544,28.511,28.511,0,0,1,8.248,2.481,4.817,4.817,0,0,0,4.134-8.7Z" transform="translate(-384.003 -204.815)" fill="#e44132"/>
    </g>
  </g>
  <g id="Group_130" data-name="Group 130" transform="translate(254.187 114.641)">
    <g id="Group_129" data-name="Group 129">
      <path id="Path_111" data-name="Path 111" d="M430.79,230.339a4.818,4.818,0,0,0-7.9,5.511,28.741,28.741,0,0,1,5.166,16.516,29.1,29.1,0,0,1-1.2,8.263,4.819,4.819,0,0,0,3.243,5.989,4.715,4.715,0,0,0,1.373.2,4.818,4.818,0,0,0,4.616-3.445A38.59,38.59,0,0,0,430.79,230.339Z" transform="translate(-422.077 -228.357)" fill="#e44132"/>
    </g>
  </g>
</svg>
