<svg id="Group_580" data-name="Group 580" xmlns="http://www.w3.org/2000/svg" width="300.563" height="190.352" viewBox="0 0 300.563 190.352">
  <g id="motorcycle_1_" data-name="motorcycle (1)" transform="translate(0 0)">
    <path id="Path_87" data-name="Path 87" d="M50.093,144a50.093,50.093,0,1,0,50.093,50.093A50.094,50.094,0,0,0,50.093,144Zm0,90.167a40.074,40.074,0,1,1,40.074-40.074A40.073,40.073,0,0,1,50.093,234.167Zm0,0" transform="translate(0 -53.833)"/>
    <path id="Path_88" data-name="Path 88" d="M68.037,192a20.037,20.037,0,1,0,20.037,20.037A20.038,20.038,0,0,0,68.037,192Zm0,30.056a10.019,10.019,0,1,1,10.019-10.018A10.017,10.017,0,0,1,68.037,222.056Zm0,0" transform="translate(-17.944 -71.778)" fill="#e44132"/>
    <path id="Path_89" data-name="Path 89" d="M253.453,90.167a49.731,49.731,0,0,0-17.2,3.106l-4.337-9.016a60.555,60.555,0,0,1,19.594-4.009c.472,0,.932-.068,1.409-.073a59.846,59.846,0,0,1,28.554,6.9,5.009,5.009,0,0,0,4.662-8.866A69.642,69.642,0,0,0,253.72,70.2c-.1,0-.171-.054-.267-.054h-.5c-.89,0-1.778.1-2.669.135a69.637,69.637,0,0,0-22.728,4.863l-8.2-17.065a48.171,48.171,0,0,0,14.057,2.037,5.008,5.008,0,0,0,5.009-5.009V15.028a5.01,5.01,0,0,0-5.009-5.009,38.484,38.484,0,0,0-30.882,13.025l-9.693-20.2A5.013,5.013,0,0,0,188.333,0H158.277a5.009,5.009,0,1,0,0,10.019h26.905L192.4,25.046H151.5A33.357,33.357,0,0,0,120.8,45.47a10.019,10.019,0,0,0-2.6-.386H38.055A20.038,20.038,0,0,0,18.017,65.121a10.02,10.02,0,0,0,9.336,9.95A69.646,69.646,0,0,0,9.922,84.979,5.01,5.01,0,1,0,16.1,92.872a60.112,60.112,0,0,1,97.1,47.387v6.6a14.013,14.013,0,0,0,2.786,10.769,9.773,9.773,0,0,0,7.233,2.669h55.1a14.7,14.7,0,0,0,15.028-15.028v-5.009a59.739,59.739,0,0,1,7.164-28.422c.33-.616.709-1.186,1.062-1.788a60.528,60.528,0,0,1,17.608-19.105c.254-.176.5-.377.741-.545.585-.4,1.211-.726,1.808-1.1.386-.24.78-.47,1.172-.707l4.349,9.057a49.992,49.992,0,1,0,26.208-7.485Zm-45.083-55.1c0-7.123,8.761-13.274,20.037-14.71V49.777a28.779,28.779,0,0,1-16.446-7.113l-3.566-7.428c0-.059-.024-.115-.024-.171Zm-56.865,0h43.75L210.282,65.12H134.994a6.776,6.776,0,0,1-6.773-6.77A23.311,23.311,0,0,1,151.5,35.065ZM38.054,55.1H118.2V65.12H28.036A10.019,10.019,0,0,1,38.054,55.1Zm145.269,90.167a4.742,4.742,0,0,1-5.009,5.009H123.251c-.083-.876-.064-2.228-.054-3.295l.015-6.724a69.93,69.93,0,0,0-44.161-65.12H118.2a9.981,9.981,0,0,0,7.184-3.06,16.653,16.653,0,0,0,9.608,3.06h81.444l2.1,4.383c-.44.257-.871.533-1.306.8-1,.6-2,1.157-2.96,1.8l-.1.076c-1.5,1-2.967,2.113-4.4,3.251a5,5,0,0,0-1.414-.286h-65.12a15.053,15.053,0,0,0-15.028,15.4v4.268a15.048,15.048,0,0,0,15.028,15.4h43.029a69.053,69.053,0,0,0-2.152,10.019H153.267a5.009,5.009,0,1,0,0,10.019h30.056Zm8.355-38.154c-.086.154-.191.3-.276.46-.044.086-.039.181-.078.271-.4.77-.763,1.573-1.137,2.358H143.249a5.089,5.089,0,0,1-5.009-5.379v-4.268a5.093,5.093,0,0,1,5.009-5.381h56.521a70.478,70.478,0,0,0-6.814,9.779c-.421.741-.881,1.419-1.277,2.16Zm61.774,73.219A40.043,40.043,0,0,1,231.6,106.7l8.844,18.435c-7.318,6.5,18.53-6.521,8.947-4.51l-8.786-18.3a40.074,40.074,0,1,1,12.849,78.013Z" transform="translate(-2.99 0)"/>
  </g>
  <path id="Path_90" data-name="Path 90" d="M68.062,192a20.062,20.062,0,1,0,20.062,20.062A20.063,20.063,0,0,0,68.062,192Zm0,30.094a10.031,10.031,0,1,1,10.031-10.031A10.03,10.03,0,0,1,68.062,222.094Zm0,0" transform="translate(182.406 -71.828)" fill="#e44132"/>
</svg>
