<svg id="car_1_" data-name="car (1)" xmlns="http://www.w3.org/2000/svg" width="241.39" height="186.716" viewBox="0 0 241.39 186.716">
  <g id="Group_4" data-name="Group 4" transform="translate(0 0)">
    <g id="Group_3" data-name="Group 3" transform="translate(0 0)">
      <path id="Path_1" data-name="Path 1" d="M232.157,122.374,226.9,116.8,208.431,67.029A21.658,21.658,0,0,0,188.263,53H56.376A21.584,21.584,0,0,0,36.208,67.029L18,116.184,10.419,123.2A29.636,29.636,0,0,0,0,145.739v72.52a21.562,21.562,0,0,0,21.56,21.457H35.177a21.562,21.562,0,0,0,21.56-21.457V207.737H184.653v10.522a21.562,21.562,0,0,0,21.56,21.457H219.83a21.562,21.562,0,0,0,21.56-21.457V143.831A29.91,29.91,0,0,0,232.157,122.374ZM45.905,70.537a11.155,11.155,0,0,1,10.471-7.221H188.315a11.229,11.229,0,0,1,10.471,7.221l16.093,43.326H202.86a35.378,35.378,0,0,0-69.993,0H29.813Zm146.433,43.326H143.287a25.054,25.054,0,0,1,49.052,0ZM46.421,218.259A11.216,11.216,0,0,1,35.177,229.4H21.56a11.216,11.216,0,0,1-11.244-11.141V204.745a20.948,20.948,0,0,0,11.244,2.992H46.421Zm184.653,0A11.216,11.216,0,0,1,219.83,229.4H206.213a11.249,11.249,0,0,1-11.244-11.141V207.737H219.83a20.948,20.948,0,0,0,11.244-2.992v13.514ZM219.83,197.421H21.56a11.128,11.128,0,0,1-11.244-11.038V145.739a19.365,19.365,0,0,1,6.86-14.752l.206-.206,7.015-6.6h195.33l4.952,5.313c.052.1.206.155.258.258a19.439,19.439,0,0,1,6.086,14.081v42.553h.052A11.161,11.161,0,0,1,219.83,197.421Z" transform="translate(0 -53)"/>
    </g>
  </g>
  <g id="Group_6" data-name="Group 6" transform="translate(24.526 91.544)">
    <g id="Group_5" data-name="Group 5">
      <path id="Path_2" data-name="Path 2" d="M91.356,231H52.218A5.234,5.234,0,0,0,47,236.218v27.135a5.234,5.234,0,0,0,5.218,5.218H91.356a5.234,5.234,0,0,0,5.218-5.218V236.218A5.234,5.234,0,0,0,91.356,231Zm-5.218,27.135h-28.7v-16.7h28.7Z" transform="translate(-47 -231)"/>
    </g>
  </g>
  <g id="Group_8" data-name="Group 8" transform="translate(167.289 91.544)">
    <g id="Group_7" data-name="Group 7">
      <path id="Path_3" data-name="Path 3" d="M370.356,231H331.218A5.234,5.234,0,0,0,326,236.218v27.135a5.234,5.234,0,0,0,5.218,5.218h39.138a5.234,5.234,0,0,0,5.219-5.218V236.218A5.234,5.234,0,0,0,370.356,231Zm-5.218,27.135h-28.7v-16.7h28.7Z" transform="translate(-326 -231)"/>
    </g>
  </g>
  <g id="Group_10" data-name="Group 10" transform="translate(90.272 113.396)">
    <g id="Group_9" data-name="Group 9">
      <path id="Path_4" data-name="Path 4" d="M231.328,273H180.918a5.218,5.218,0,1,0,0,10.437h50.409a5.218,5.218,0,0,0,0-10.437Z" transform="translate(-175.7 -273)" fill="#e44132"/>
    </g>
  </g>
  <g id="Group_12" data-name="Group 12" transform="translate(90.272 97.418)">
    <g id="Group_11" data-name="Group 11">
      <path id="Path_5" data-name="Path 5" d="M231.328,242H180.918a5.218,5.218,0,0,0,0,10.437h50.409a5.218,5.218,0,0,0,0-10.437Z" transform="translate(-175.7 -242)" fill="#e44132"/>
    </g>
  </g>
</svg>
