<svg id="smart-tv" xmlns="http://www.w3.org/2000/svg" width="212.124" height="176.77" viewBox="0 0 212.124 176.77">
  <g id="Group_134" data-name="Group 134">
    <g id="Group_133" data-name="Group 133">
      <path id="Path_122" data-name="Path 122" d="M94.935,170.667a4.421,4.421,0,0,0-4.419,4.419v13.258H72.838V175.086a4.419,4.419,0,1,0-8.838,0V210.44a4.419,4.419,0,0,0,8.839,0V197.182H90.515V210.44a4.419,4.419,0,0,0,8.839,0V175.086A4.421,4.421,0,0,0,94.935,170.667Z" transform="translate(-37.485 -117.636)" fill="#e44132"/>
      <path id="Path_123" data-name="Path 123" d="M192.763,170.667H175.085a4.421,4.421,0,0,0-4.419,4.419V210.44a4.421,4.421,0,0,0,4.419,4.419h17.677A13.274,13.274,0,0,0,206.02,201.6V183.925A13.273,13.273,0,0,0,192.763,170.667Zm4.419,30.934a4.421,4.421,0,0,1-4.419,4.419H179.5V179.505h13.258a4.421,4.421,0,0,1,4.419,4.419Z" transform="translate(-99.958 -117.636)" fill="#e44132"/>
      <path id="Path_124" data-name="Path 124" d="M198.866,42.667H13.258A13.274,13.274,0,0,0,0,55.925V179.663a13.274,13.274,0,0,0,13.258,13.258H88.385v9.519l-49.337,8.22a4.418,4.418,0,0,0,.725,8.777,4.108,4.108,0,0,0,.725-.062l52.66-8.777h25.8l52.66,8.777a4.175,4.175,0,0,0,.734.062,4.418,4.418,0,0,0,.716-8.777l-49.327-8.22v-9.519h75.127a13.274,13.274,0,0,0,13.258-13.258V55.925A13.274,13.274,0,0,0,198.866,42.667ZM114.9,201.759H97.223v-8.838H114.9Zm88.385-22.1a4.421,4.421,0,0,1-4.419,4.419H13.258a4.421,4.421,0,0,1-4.419-4.419V55.925a4.421,4.421,0,0,1,4.419-4.419H198.866a4.421,4.421,0,0,1,4.419,4.419Z" transform="translate(0 -42.667)"/>
      <path id="Path_125" data-name="Path 125" d="M297.6,170.667H271.085a4.419,4.419,0,1,0,0,8.838h8.838V210.44a4.419,4.419,0,0,0,8.839,0V179.505H297.6a4.419,4.419,0,0,0,0-8.838Z" transform="translate(-156.185 -117.636)" fill="#e44132"/>
      <path id="Path_126" data-name="Path 126" d="M395.157,170.948a4.412,4.412,0,0,0-5.692,2.581l-9.121,24.323-9.121-24.323a4.419,4.419,0,0,0-8.273,3.111l13.258,35.354a4.419,4.419,0,0,0,8.273,0l13.258-35.354A4.422,4.422,0,0,0,395.157,170.948Z" transform="translate(-212.412 -117.634)" fill="#e44132"/>
    </g>
  </g>
</svg>
