<svg id="double-bed" xmlns="http://www.w3.org/2000/svg" width="273.794" height="145.452" viewBox="0 0 273.794 145.452">
  <path id="Path_91" data-name="Path 91" d="M0,296v29.946H34.224v21.39H42.78v-21.39H231.014v21.39h8.556v-21.39h34.224V296Zm265.239,21.391H8.556V304.555H265.238v12.835Z" transform="translate(0 -201.884)"/>
  <path id="Path_92" data-name="Path 92" d="M269.346,261.946V253.02A21.044,21.044,0,0,0,248.325,232H85.021A21.045,21.045,0,0,0,64,253.021v8.926h8.556V253.02a12.478,12.478,0,0,1,12.465-12.464h163.3a12.478,12.478,0,0,1,12.465,12.465v8.926Z" transform="translate(-29.776 -172.108)"/>
  <path id="Path_93" data-name="Path 93" d="M40.556,128.556H263.014v81.283h8.556V120H32v89.838h8.556Z" transform="translate(-14.888 -120.001)"/>
  <path id="Path_94" data-name="Path 94" d="M184.727,201.668V191.016A15.033,15.033,0,0,0,169.711,176H127.017A15.033,15.033,0,0,0,112,191.016v10.652h8.556V191.016a6.467,6.467,0,0,1,6.46-6.46h42.694a6.467,6.467,0,0,1,6.46,6.46v10.652Z" transform="translate(-52.108 -146.054)" fill="#e44132"/>
  <path id="Path_95" data-name="Path 95" d="M336.727,201.668V191.016A15.033,15.033,0,0,0,321.71,176H279.016A15.033,15.033,0,0,0,264,191.016v10.652h8.556V191.016a6.467,6.467,0,0,1,6.46-6.46H321.71a6.467,6.467,0,0,1,6.46,6.46v10.652Z" transform="translate(-122.825 -146.054)" fill="#e44132"/>
</svg>
