<?xml version="1.0" encoding="utf-8"?>
<!-- Generator: Adobe Illustrator 19.0.0, SVG Export Plug-In . SVG Version: 6.00 Build 0)  -->
<svg version="1.1" id="Capa_1" xmlns="http://www.w3.org/2000/svg" xmlns:xlink="http://www.w3.org/1999/xlink" x="0px" y="0px"
	 viewBox="-69 161.3 471.7 471.7" style="enable-background:new -69 161.3 471.7 471.7;" xml:space="preserve">
<style type="text/css">
	.st0{fill:#E44132;}
</style>
<g>
	<path class="st0" d="M364.6,238.6c-24.7-24.7-57.4-38.2-92.3-38.2s-67.7,13.6-92.4,38.3L167,251.6l-13.1-13.1
		c-24.7-24.7-57.6-38.4-92.5-38.4c-34.8,0-67.6,13.6-92.2,38.2C-55.5,263-69.1,295.8-69,330.7c0,34.9,13.7,67.6,38.4,92.3
		l187.8,187.8c2.6,2.6,6.1,4,9.5,4s6.9-1.3,9.5-3.9l188.2-187.5c24.7-24.7,38.3-57.5,38.3-92.4C402.8,296.1,389.3,263.3,364.6,238.6
		z M345.4,404.3l-178.7,178L-11.6,404C-31.2,384.4-42,358.4-42,330.7s10.7-53.7,30.3-73.2c19.5-19.5,45.5-30.3,73.1-30.3
		c27.7,0,53.8,10.8,73.4,30.4l22.6,22.6c5.3,5.3,13.8,5.3,19.1,0l22.4-22.4c19.6-19.6,45.7-30.4,73.3-30.4s53.6,10.8,73.2,30.3
		c19.6,19.6,30.3,45.6,30.3,73.3C375.8,358.7,365,384.7,345.4,404.3z"/>
</g>
<g>
	<path class="st0" d="M345.3,252.8c-22.1-22.1-51.4-34.2-82.6-34.2s-60.6,12.2-82.7,34.3l-11.5,11.5l-11.7-11.7
		c-22.1-22.1-51.6-34.4-82.8-34.4c-31.2,0-60.5,12.2-82.6,34.2C-30.8,274.6-43,304-42.9,335.2c0,31.2,12.3,60.5,34.4,82.6L159.6,586
		c2.3,2.3,5.5,3.6,8.5,3.6s6.2-1.2,8.5-3.5l168.5-167.9c22.1-22.1,34.3-51.5,34.3-82.7C379.5,304.3,367.4,274.9,345.3,252.8z
		 M328.1,401.1l-160,159.4L8.5,400.9c-17.5-17.5-27.2-40.8-27.2-65.6c0-24.8,9.6-48.1,27.1-65.5c17.5-17.5,40.7-27.1,65.4-27.1
		c24.8,0,48.2,9.7,65.7,27.2l20.2,20.2c4.7,4.7,12.4,4.7,17.1,0l20.1-20.1c17.5-17.5,40.9-27.2,65.6-27.2s48,9.7,65.5,27.1
		c17.5,17.5,27.1,40.8,27.1,65.6C355.3,360.3,345.7,383.6,328.1,401.1z"/>
</g>
</svg>
