<svg id="icon_1_" data-name="icon (1)" xmlns="http://www.w3.org/2000/svg" width="131.65" height="200.964" viewBox="0 0 131.65 200.964">
  <g id="Group_137" data-name="Group 137" transform="translate(0)">
    <path id="Path_127" data-name="Path 127" d="M119.113,0H18.443A15.508,15.508,0,0,0,2.959,15.484v159.3a15.5,15.5,0,0,0,15.484,15.484H18.7a8.805,8.805,0,0,0-.258,2.026,8.67,8.67,0,0,0,8.667,8.667H31.9a8.663,8.663,0,0,0,8.667-8.667,8.21,8.21,0,0,0-.269-2.026H98.358A8.209,8.209,0,0,0,98.1,192.3a8.66,8.66,0,0,0,8.656,8.667h4.79a8.663,8.663,0,0,0,8.667-8.667,8.886,8.886,0,0,0-.281-2.108,15.471,15.471,0,0,0,14.676-15.4V15.484A15.534,15.534,0,0,0,119.113,0ZM18.443,13.27h100.67a2.209,2.209,0,0,1,2.2,2.214V70.99H16.229V15.484A2.219,2.219,0,0,1,18.443,13.27Zm100.67,163.718H18.443a2.217,2.217,0,0,1-2.214-2.2V84.272h105.1v90.515A2.232,2.232,0,0,1,119.113,176.989Z" transform="translate(-2.959 0)" fill="#030104"/>
    <rect id="Rectangle_26" data-name="Rectangle 26" width="13.282" height="19.361" transform="translate(24.327 29.867)" fill="#e44132"/>
    <rect id="Rectangle_27" data-name="Rectangle 27" width="13.282" height="29.363" transform="translate(24.327 95.13)" fill="#e44132"/>
  </g>
</svg>
