<svg id="online-job-search-symbol" xmlns="http://www.w3.org/2000/svg" width="250.376" height="196.402" viewBox="0 0 250.376 196.402">
  <g id="Group_138" data-name="Group 138" transform="translate(0 0)">
    <path id="Path_128" data-name="Path 128" d="M107.838,259.385a13.758,13.758,0,0,0,6.681-1.6,10.258,10.258,0,0,0,4.591-5.03,19.534,19.534,0,0,0,1.29-7.764V222.344a3.226,3.226,0,0,0-3.224-3.225H112.79a3.226,3.226,0,0,0-3.224,3.225v22.906a9.888,9.888,0,0,1-.284,3.1.669.669,0,0,1-.335.387,2.056,2.056,0,0,1-1.135.258c-.8,0-1.032-.232-1.109-.335,0,0-.49-.671-.593-3.2a3.234,3.234,0,0,0-1.161-2.347,3.15,3.15,0,0,0-2.5-.722l-3.972.541a3.219,3.219,0,0,0-2.786,3.147c-.077,4.153.954,7.429,3.1,9.725C100.951,258.2,103.994,259.385,107.838,259.385Z" transform="translate(-71.003 -189.584)" fill="#e44132"/>
    <path id="Path_129" data-name="Path 129" d="M211.654,254.945a18.839,18.839,0,0,0,10.086,2.734,19.765,19.765,0,0,0,9.622-2.45,17.114,17.114,0,0,0,7.094-7.4,22.742,22.742,0,0,0,2.4-10.524,23.255,23.255,0,0,0-2.27-10.344,17.558,17.558,0,0,0-6.887-7.481,19.234,19.234,0,0,0-9.957-2.657,18.259,18.259,0,0,0-13.8,5.675c-3.534,3.715-5.34,8.822-5.34,15.167a22.081,22.081,0,0,0,2.218,9.7A18.184,18.184,0,0,0,211.654,254.945Zm4.308-25.563a8.083,8.083,0,0,1,5.8-2.321,7.747,7.747,0,0,1,4.2,1.161,7.184,7.184,0,0,1,2.786,3.3,13.959,13.959,0,0,1,1.083,5.752c0,3.431-.8,6.036-2.348,7.738a8.067,8.067,0,0,1-11.556.026c-1.6-1.7-2.373-4.076-2.373-7.274C213.615,233.716,214.388,230.878,215.962,229.382Z" transform="translate(-150.339 -187.878)" fill="#e44132"/>
    <path id="Path_130" data-name="Path 130" d="M390.622,230.857a11.359,11.359,0,0,0-1.78-6.087,10.964,10.964,0,0,0-5.056-4.359,18.5,18.5,0,0,0-7.4-1.29H363.924a3.225,3.225,0,0,0-3.224,3.224v33.224a3.225,3.225,0,0,0,3.224,3.224H376.59a25.407,25.407,0,0,0,6.164-.645,13.134,13.134,0,0,0,4.772-2.193,11.577,11.577,0,0,0,3.4-4.256,12.893,12.893,0,0,0,1.316-5.752,11.352,11.352,0,0,0-2.27-6.991,11.169,11.169,0,0,0-1.5-1.625,5.468,5.468,0,0,0,.542-.8A10.8,10.8,0,0,0,390.622,230.857Zm-19.088-1.341h3.431a15.565,15.565,0,0,1,4.075.31.915.915,0,0,1,.516.361,2.1,2.1,0,0,1,.284,1.187,1.559,1.559,0,0,1-.232.98,1.947,1.947,0,0,1-.877.49,12.676,12.676,0,0,1-3.25.258h-3.972v-3.585Zm9.441,17.7a1.751,1.751,0,0,1-.542.645,4.149,4.149,0,0,1-1.419.464,15.656,15.656,0,0,1-2.4.1h-5.056v-4.979H376a13.718,13.718,0,0,1,3.844.387,1.945,1.945,0,0,1,1.006.7,2.278,2.278,0,0,1,.387,1.393A2.663,2.663,0,0,1,380.975,247.21Z" transform="translate(-267.658 -189.585)" fill="#e44132"/>
    <path id="Path_131" data-name="Path 131" d="M212.2,438.867a58.118,58.118,0,0,1,6.4-6.448H101.049a6.449,6.449,0,1,0,0,12.9h106.4A61.047,61.047,0,0,1,212.2,438.867Z" transform="translate(-70.198 -347.864)"/>
    <path id="Path_132" data-name="Path 132" d="M573.974,217.419H502.549a6.449,6.449,0,0,0,0,12.9h71.426a6.449,6.449,0,1,0,0-12.9Z" transform="translate(-368.131 -188.323)"/>
    <path id="Path_133" data-name="Path 133" d="M580.424,329.769a6.451,6.451,0,0,0-6.449-6.449H502.549a6.449,6.449,0,0,0,0,12.9h71.426A6.451,6.451,0,0,0,580.424,329.769Z" transform="translate(-368.131 -266.907)"/>
    <path id="Path_134" data-name="Path 134" d="M94.6,551.168a6.451,6.451,0,0,0,6.449,6.449h97.376a58.8,58.8,0,0,1,.594-6.449,59.588,59.588,0,0,1,1.341-6.449h-99.31A6.451,6.451,0,0,0,94.6,551.168Z" transform="translate(-70.198 -431.196)"/>
    <path id="Path_135" data-name="Path 135" d="M376.4,814.12H301.155a5.064,5.064,0,0,0-5.056,5.055v3.276a5.065,5.065,0,0,0,5.056,5.057h75.218a5.065,5.065,0,0,0,5.056-5.057v-3.276A5.042,5.042,0,0,0,376.4,814.12Z" transform="translate(-219.721 -631.106)"/>
    <path id="Path_136" data-name="Path 136" d="M86.851,259.182h6.139l-1.212,22H146.36l-.336-6.113a58.835,58.835,0,0,1-11.711-15.889,58.214,58.214,0,0,1-4.617-12.743c0-.051-.026-.1-.026-.155H15.245a2.356,2.356,0,0,1-2.347-2.348V119.864a2.356,2.356,0,0,1,2.347-2.347H222.868a2.356,2.356,0,0,1,2.347,2.347v70.265a58.86,58.86,0,0,1,12.9,16.844V119.864a15.258,15.258,0,0,0-15.245-15.245H15.245A15.258,15.258,0,0,0,0,119.864V243.937a15.258,15.258,0,0,0,15.245,15.245Z" transform="translate(0 -104.619)"/>
    <path id="Path_137" data-name="Path 137" d="M620.776,488.2l-2.3-2.347-1.6-1.625a9.114,9.114,0,0,0-.748-.671,52.7,52.7,0,0,0,4-6.939,51.636,51.636,0,0,0-73.619-66.189,52.581,52.581,0,0,0-8.435,6.449,51.005,51.005,0,0,0-5.8,6.449,51.836,51.836,0,0,0-8.229,16.07,51.205,51.205,0,0,0-2.192,12.9c-.025.722-.052,1.47-.052,2.193a53.665,53.665,0,0,0,.491,7.093c.129,1.032.309,2.038.516,3.044.206.98.412,1.935.67,2.915a.381.381,0,0,0,.052.155,51.33,51.33,0,0,0,5.288,12.742,52.918,52.918,0,0,0,3.817,5.649c1.033,1.315,2.116,2.605,3.276,3.818,1.032,1.083,2.115,2.141,3.225,3.147a51.543,51.543,0,0,0,63.4,4.127c.18.207.361.413.568.619l1.7,1.728,2.3,2.322,13.9,14.161a9.677,9.677,0,0,0,13.8-13.568Zm-13.491-20.636a36.72,36.72,0,0,1-8.538,12.9,36.2,36.2,0,0,1-61.47-25.95c0-.748.027-1.47.078-2.193a35.319,35.319,0,0,1,.981-6.449,36.218,36.218,0,0,1,16.689-22.519,36.242,36.242,0,0,1,54.737,31.16A37.151,37.151,0,0,1,607.286,467.564Z" transform="translate(-387.204 -325.899)"/>
  </g>
</svg>
