<svg id="job-search_1_" data-name="job-search (1)" xmlns="http://www.w3.org/2000/svg" width="202.403" height="202.402" viewBox="0 0 202.403 202.402">
  <g id="Group_142" data-name="Group 142">
    <g id="Group_141" data-name="Group 141">
      <path id="Path_138" data-name="Path 138" d="M87,128a4.6,4.6,0,0,0-4.6,4.6v27.6a4.6,4.6,0,0,1-9.2,0,4.6,4.6,0,1,0-9.2,0,13.8,13.8,0,0,0,27.6,0V132.6A4.6,4.6,0,0,0,87,128Z" transform="translate(-36.4 -72.799)" fill="#e44132"/>
      <path id="Path_139" data-name="Path 139" d="M163.133,128a13.815,13.815,0,0,0-13.8,13.8v18.4a13.8,13.8,0,0,0,27.6,0V141.8A13.815,13.815,0,0,0,163.133,128Zm4.6,32.2a4.6,4.6,0,0,1-9.2,0V141.8a4.6,4.6,0,0,1,9.2,0Z" transform="translate(-84.932 -72.799)" fill="#e44132"/>
      <path id="Path_140" data-name="Path 140" d="M239.266,128a4.6,4.6,0,0,0-4.6,4.6v36.8a4.6,4.6,0,0,0,4.6,4.6h9.2a13.794,13.794,0,0,0,10.278-23,13.794,13.794,0,0,0-10.278-23h-9.2Zm9.2,36.8h-4.6v-9.2h4.6a4.6,4.6,0,1,1,0,9.2Zm4.6-23a4.606,4.606,0,0,1-4.6,4.6h-4.6v-9.2h4.6A4.605,4.605,0,0,1,253.066,141.8Z" transform="translate(-133.465 -72.799)" fill="#e44132"/>
      <path id="Path_141" data-name="Path 141" d="M199.708,186.7,139.551,126.54a78.436,78.436,0,1,0-13.009,13.01L186.7,199.707a9.2,9.2,0,0,0,13.01-13.009ZM78.2,138A59.8,59.8,0,1,1,138,78.2,59.87,59.87,0,0,1,78.2,138Z"/>
    </g>
  </g>
</svg>
