<svg id="smartphone_2_" data-name="smartphone (2)" xmlns="http://www.w3.org/2000/svg" width="113.334" height="200" viewBox="0 0 113.334 200">
  <g id="Group_77" data-name="Group 77" transform="translate(36.828 9.919)">
    <g id="Group_76" data-name="Group 76">
      <path id="Path_96" data-name="Path 96" d="M241.172,25.6H208.107a3.306,3.306,0,0,0,0,6.613h33.065a3.306,3.306,0,0,0,0-6.613Z" transform="translate(-204.801 -25.6)" fill="#00529b"/>
    </g>
  </g>
  <g id="Group_79" data-name="Group 79" transform="translate(90.188 9.919)">
    <g id="Group_78" data-name="Group 78">
      <path id="Path_97" data-name="Path 97" d="M347.947,25.6H344.64a3.306,3.306,0,0,0,0,6.613h3.307a3.306,3.306,0,0,0,0-6.613Z" transform="translate(-341.334 -25.6)"/>
    </g>
  </g>
  <g id="Group_81" data-name="Group 81" transform="translate(43.441 170.242)">
    <g id="Group_80" data-name="Group 80">
      <path id="Path_98" data-name="Path 98" d="M239.2,435.2h-8.21a9.134,9.134,0,0,0-9.123,9.122v1.6a9.131,9.131,0,0,0,9.119,9.119h8.21a9.131,9.131,0,0,0,9.122-9.119v-1.6A9.133,9.133,0,0,0,239.2,435.2Zm2.506,10.719a2.509,2.509,0,0,1-2.506,2.506h-8.21a2.51,2.51,0,0,1-2.51-2.506v-1.6a2.511,2.511,0,0,1,2.51-2.51H239.2a2.51,2.51,0,0,1,2.51,2.51Z" transform="translate(-221.867 -435.2)" fill="#e44132"/>
    </g>
  </g>
  <g id="Group_83" data-name="Group 83">
    <g id="Group_82" data-name="Group 82">
      <path id="Path_99" data-name="Path 99" d="M212.22,0H122.983a12.065,12.065,0,0,0-12.05,12.05v175.9A12.065,12.065,0,0,0,122.983,200h89.233a12.064,12.064,0,0,0,12.05-12.046V12.05A12.064,12.064,0,0,0,212.22,0Zm5.38,187.95a5.389,5.389,0,0,1-5.38,5.383H122.983a5.389,5.389,0,0,1-5.383-5.38V12.05a5.389,5.389,0,0,1,5.383-5.383h89.233A5.389,5.389,0,0,1,217.6,12.05v175.9Z" transform="translate(-110.933)"/>
    </g>
  </g>
  <g id="Group_85" data-name="Group 85" transform="translate(0 19.839)">
    <g id="Group_84" data-name="Group 84">
      <path id="Path_100" data-name="Path 100" d="M220.934,51.2H114.267a3.321,3.321,0,0,0-3.333,3.306V193.379a3.321,3.321,0,0,0,3.333,3.306H220.934a3.321,3.321,0,0,0,3.333-3.306V54.506A3.321,3.321,0,0,0,220.934,51.2ZM217.6,190.073h-100V57.813h100Z" transform="translate(-110.934 -51.2)"/>
    </g>
  </g>
</svg>
