<svg id="repair-tools" xmlns="http://www.w3.org/2000/svg" width="171.816" height="170.395" viewBox="0 0 171.816 170.395">
  <path id="Path_117" data-name="Path 117" d="M229.919,54.766a3.887,3.887,0,0,0,5.5,5.5l3.21-3.211a3.886,3.886,0,0,0,.775-4.389,33.374,33.374,0,0,1-3.228-14.153,33.823,33.823,0,0,1,11.4-25.275l.012,25.446a3.887,3.887,0,0,0,1.674,3.194l18.444,12.771a3.887,3.887,0,0,0,4.424,0l18.45-12.765a3.887,3.887,0,0,0,1.676-3.2l0-25.445a33.721,33.721,0,0,1-22.318,59h-.027c-3.1,0-9.181-1.5-11.263-2.08a3.888,3.888,0,0,0-3.789,1L243.038,82.97a3.887,3.887,0,1,0,5.5,5.5l10.244-10.244A54.718,54.718,0,0,0,269.9,80.011h.033a41.5,41.5,0,0,0,20.34-77.673,3.887,3.887,0,0,0-5.8,3.386l0,30.926L269.919,46.723,255.362,36.642l-.015-30.928a3.887,3.887,0,0,0-5.8-3.383A41.63,41.63,0,0,0,228.4,38.51a40.6,40.6,0,0,0,2.87,14.9Z" transform="translate(-139.615 -1.829)"/>
  <path id="Path_118" data-name="Path 118" d="M80.011,248.375,26.086,302.3a10.665,10.665,0,0,1-7.585,3.147h-.006a10.721,10.721,0,0,1-7.573-18.31L57.3,240.752a3.887,3.887,0,1,0-5.5-5.5L5.429,281.638a18.495,18.495,0,0,0,13.065,31.586h.01A18.388,18.388,0,0,0,31.584,307.8l53.924-53.926a3.887,3.887,0,0,0-5.5-5.5Z" transform="translate(0 -143.82)"/>
  <path id="Path_119" data-name="Path 119" d="M39.922,377.851a4.736,4.736,0,0,0-3.371,1.394,4.791,4.791,0,0,0-.021,6.763l.014.015a4.785,4.785,0,1,0,3.381-8.171Z" transform="translate(-21.482 -231.682)" fill="#00529b"/>
  <path id="Path_120" data-name="Path 120" d="M146.533,131.074a3.9,3.9,0,0,0-1.424-.906l-11.148-4.042L93.694,85.858,100.2,79.35a3.888,3.888,0,0,0-4.262-6.331l-60.906-60.9a19.405,19.405,0,0,0-13.813-5.74H21.2a19.559,19.559,0,0,0-13.826,33.4l60.907,60.9a3.888,3.888,0,0,0,6.331,4.261l6.507-6.507L121.385,138.7l4.042,11.148a3.884,3.884,0,0,0,.906,1.424l22.594,22.594a3.887,3.887,0,0,0,5.5,0l14.7-14.7a3.887,3.887,0,0,0,0-5.5ZM85.447,83.109l-.025.025L73.576,94.981l-60.707-60.7A11.783,11.783,0,0,1,21.2,14.154h.014a11.684,11.684,0,0,1,8.32,3.459l60.709,60.7-4.769,4.769Zm66.229,82.511-19.234-19.234L128.4,135.239a3.884,3.884,0,0,0-.906-1.424L86.615,92.937,88.2,91.356l40.878,40.879a3.9,3.9,0,0,0,1.424.906l11.148,4.042,19.234,19.234Z" transform="translate(-1.001 -4.61)"/>
  <path id="Path_121" data-name="Path 121" d="M48.546,47.783a3.887,3.887,0,0,0-5.5,5.5l53.625,53.625a3.887,3.887,0,0,0,5.5-5.5Z" transform="translate(-25.619 -29.224)" fill="#e44132"/>
</svg>
