<svg id="Group_579" data-name="Group 579" xmlns="http://www.w3.org/2000/svg" width="225.105" height="175.06" viewBox="0 0 225.105 175.06">
  <path id="XMLID_235_" d="M4.184,222.9a4.184,4.184,0,1,1,0-8.368H32.561a55.7,55.7,0,0,1-14.639-81.616V61.735a4.184,4.184,0,0,1,2.208-3.688L38.237,48.34a4.186,4.186,0,0,1,1.977-.5H53.327a4.184,4.184,0,0,1,3.607,2.063L85.1,97.793H122.6l.534-8.283a4.184,4.184,0,0,1,4.175-3.915h19.938V66.3H137.6a4.184,4.184,0,1,1,0-8.368h13.728c.069,0,.138,0,.207,0h13.727a4.184,4.184,0,0,1,0,8.368h-9.646V85.595h20.946c13.577,0,19.563,11.806,23.261,22.091l7.87,21.891a4.186,4.186,0,0,1,.247,1.416v14.756a42.827,42.827,0,0,1-.62,69.037,4.185,4.185,0,0,1-1.427,8.119H128.424a4.184,4.184,0,0,1,0-8.368h28.4a42.858,42.858,0,0,1,42.748-73.7v-9.11l-.291-.808H188.7a4.184,4.184,0,1,1,0-8.368h7.567l-4.324-12.028c-4.228-11.758-8.685-16.554-15.386-16.554H131.229l-.534,8.283a4.184,4.184,0,0,1-4.175,3.915H82.71A4.184,4.184,0,0,1,79.1,104.1L50.934,56.213H41.264L26.29,64.239v60.04a55.718,55.718,0,0,1,85.743,18.43h25.833a4.184,4.184,0,1,1,0,8.368H115.318A55.392,55.392,0,0,1,117,158.45h13.262a4.184,4.184,0,0,1,0,8.368H117.676c0,.109,0,.217,0,.326a55.78,55.78,0,0,1-26.4,47.391h6.2a4.184,4.184,0,0,1,0,8.368H4.184ZM182.238,145.54a34.5,34.5,0,0,0-.264,69h.527a34.5,34.5,0,0,0-.264-69Zm-120.63,69h.619a47.394,47.394,0,1,0-.619,0Zm-3.875-15.867a4.184,4.184,0,0,0,4.184,4.184,35.748,35.748,0,0,0,35.708-35.708,4.184,4.184,0,1,0-8.368,0,27.37,27.37,0,0,1-27.339,27.34A4.184,4.184,0,0,0,57.732,198.668Zm-27.34-27.339a4.184,4.184,0,0,0,4.184-4.184A27.371,27.371,0,0,1,61.916,139.8a4.184,4.184,0,0,0,0-8.368,35.748,35.748,0,0,0-35.708,35.708A4.184,4.184,0,0,0,30.392,171.328Z" transform="translate(0 -47.844)"/>
  <ellipse id="Ellipse_25" data-name="Ellipse 25" cx="16.672" cy="16.672" rx="16.672" ry="16.672" transform="translate(164.106 116.707)" fill="#e44132"/>
  <ellipse id="Ellipse_26" data-name="Ellipse 26" cx="12.504" cy="12.504" rx="12.504" ry="12.504" transform="translate(47.4 108.37)" fill="#e44132"/>
</svg>
